<?xml version="1.0" encoding="UTF-8" standalone="no"?>
<svg
   xmlns:dc="http://purl.org/dc/elements/1.1/"
   xmlns:cc="http://creativecommons.org/ns#"
   xmlns:rdf="http://www.w3.org/1999/02/22-rdf-syntax-ns#"
   xmlns:svg="http://www.w3.org/2000/svg"
   xmlns="http://www.w3.org/2000/svg"
   xmlns:sodipodi="http://sodipodi.sourceforge.net/DTD/sodipodi-0.dtd"
   xmlns:inkscape="http://www.inkscape.org/namespaces/inkscape"
   height="24"
   viewBox="0 0 726 628"
   width="24"
   version="1.1"
   id="svg3715"
   sodipodi:docname="action_score.svg"
   inkscape:version="0.92.2 (5c3e80d, 2017-08-06)">
  <metadata
     id="metadata3721">
    <rdf:RDF>
      <cc:Work
         rdf:about="">
        <dc:format>image/svg+xml</dc:format>
        <dc:type
           rdf:resource="http://purl.org/dc/dcmitype/StillImage" />
      </cc:Work>
    </rdf:RDF>
  </metadata>
  <defs
     id="defs3719">
    <inkscape:path-effect
       effect="bspline"
       id="path-effect3725"
       is_visible="true"
       weight="6.5333"
       steps="10"
       helper_size="0"
       apply_no_weight="true"
       apply_with_weight="true"
       only_selected="false" />
    <inkscape:path-effect
       effect="transform_2pts"
       start="3,314"
       end="723,314"
       id="path-effect3723"
       is_visible="true"
       first_knot="1"
       last_knot="2"
       helper_size="3"
       stretch="1"
       offset="0"
       elastic="false"
       from_original_width="true"
       flip_vertical="false"
       flip_horizontal="false"
       lock_lenght="false"
       lock_angle="false" />
  </defs>
  <sodipodi:namedview
     pagecolor="#ffffff"
     bordercolor="#666666"
     borderopacity="1"
     objecttolerance="10"
     gridtolerance="10"
     guidetolerance="10"
     inkscape:pageopacity="0"
     inkscape:pageshadow="2"
     inkscape:window-width="1920"
     inkscape:window-height="1017"
     id="namedview3717"
     showgrid="false"
     inkscape:zoom="31.407407"
     inkscape:cx="15.945894"
     inkscape:cy="10.864008"
     inkscape:window-x="-4"
     inkscape:window-y="-4"
     inkscape:window-maximized="1"
     inkscape:current-layer="svg3715" />
  <path
     d="m 723,314 c -11.75894,20.37183 -168.23906,291.43017 -180,311.8 -23.51888,0.001 -336.47912,0.001 -360,0 C 171.24106,605.43017 14.76094,334.37183 3,314 14.76094,293.63017 171.24106,22.571829 183,2.2 c 23.52088,10e-4 336.48112,10e-4 360,0 11.76094,20.371829 168.24106,291.43017 180,311.8 z"
     stroke="000000"
     id="path3711"
     style="fill:#ffd5d5;fill-opacity:1;stroke-width:4"
     inkscape:connector-curvature="0" />
  <path
     d="m 336.8433,419.93501 h 44.15961 V 287.20608 H 336.8433 Z M 358.92312,88.112672 c -121.88056,0 -220.79812,99.104268 -220.79812,221.214898 0,122.11062 98.91756,221.21488 220.79812,221.21488 121.88054,0 220.7981,-99.10426 220.7981,-221.21488 0,-122.11063 -98.91756,-221.214898 -220.7981,-221.214898 z m 0,398.186798 c -97.37197,0 -176.6385,-79.41613 -176.6385,-176.9719 0,-97.55577 79.26653,-176.97192 176.6385,-176.97192 97.37196,0 176.63848,79.41615 176.63848,176.97192 0,97.55577 -79.26652,176.9719 -176.63848,176.9719 z M 336.8433,242.96309 h 44.15961 V 198.72011 H 336.8433 Z"
     fill="000000"
     id="path3713"
     inkscape:connector-curvature="0"
     style="stroke-width:22.10064125" />
</svg>
